<svg xmlns="http://www.w3.org/2000/svg" width="50" height="50" viewBox="-3 -3 22 22" id="icon"><path d="M16 6c0-1.935-1.345-3.5-3-3.5-.437 0-.847.112-1.22.306C10.98 1.422 9.59.5 8 .5c-1.592 0-2.982.922-3.783 2.306A2.625 2.625 0 0 0 3 2.5C1.34 2.5 0 4.064 0 6c0 1.614.94 2.96 2.215 3.363-.127.365-.216.74-.216 1.136 0 2.484 2.685 5 6 5 3.313 0 6-2.516 6-5 0-.396-.09-.772-.218-1.137C15.056 8.96 16 7.613 16 6zM1 6c0-1.382.895-2.5 2-2.5.287 0 .56.078.807.216A5.44 5.44 0 0 0 3.5 5.5c0 .63.115 1.228.308 1.785-.46.338-.83.74-1.13 1.174C1.73 8.266 1 7.242 1 6zm7 8.5c-2.763 0-5-2.068-5-4 0-1.165.82-2.19 2.068-2.825a4.392 4.392 0 0 1-.57-2.176c0-1.625.852-3.017 2.068-3.644C7.246 2.16 8 2.674 8 3.5c0-.894.704-1.426 1.278-1.716 1.3.585 2.22 2.023 2.22 3.715 0 .803-.212 1.548-.567 2.175C12.18 8.312 13 9.335 13 10.5c0 1.932-2.24 4-5 4zm5.32-6.04a4.84 4.84 0 0 0-1.13-1.175c.19-.557.31-1.154.31-1.786a5.44 5.44 0 0 0-.31-1.784c.248-.138.52-.217.81-.217 1.103 0 2 1.118 2 2.5 0 1.243-.73 2.267-1.68 2.46zM8 11.5c-1.658 0-3-.897-3-2H4c0 1.656 1.79 3 4 3 2.208 0 4-1.344 4-3h-1c0 1.104-1.345 2-3 2z"/></svg>